<svg width="40" height="41" viewBox="0 0 40 41" fill="none" xmlns="http://www.w3.org/2000/svg">
<path d="M40 24.948V21.0942H22.1292L26.1785 24.948H40ZM40 13.6618V9.53272H31.907L27.8577 13.6618H40ZM40 36.5095V32.6557H33.5834L37.6354 36.5095H40ZM3.90613 37.5446L3.35558 36.994L2.75274 36.3774L0.0357856 33.6715L0.0165164 39.0888L0 39.4357L0.44319 39.8789L0.825821 40.2698L1.19193 40.2533L6.60657 40.234L3.90613 37.5446ZM33.3081 0.0165164L17.2321 16.0787L20.1308 18.9774L39.0558 0.052302L33.3081 0.0165164ZM7.98293 31.1582L8.58578 31.7611L9.13633 32.3254L17.0615 40.2533L22.8257 40.2175L12.035 29.4267L11.4844 28.8624L10.8816 28.2568L0.052302 17.4551L0.0165164 23.2166L7.98293 31.1582ZM16.076 23.0404L16.6788 23.6432L17.2294 24.1938L33.2558 40.2202L39.0338 40.1899L20.1418 21.3089L19.5912 20.7419L18.9884 20.139L0.0688184 1.23598L0.0357856 7.00021L16.076 23.0404ZM3.89512 2.75274L6.62033 0.0275274L1.18918 0.0357856L3.89512 2.75274ZM9.12532 7.98293L12.0129 10.8595L22.8477 0.0357856L17.067 0L9.12532 7.98293Z" fill="#131B31"/>
</svg>
