<svg width="141" height="25" viewBox="0 0 141 25" fill="none" xmlns="http://www.w3.org/2000/svg">
<path d="M12.4662 24.9453C10.5671 24.9453 8.66805 25.0425 6.77549 24.9453C3.24961 24.7119 0.449645 22.3462 0.216315 18.7944C-0.0721049 14.5843 -0.0721049 10.3594 0.216315 6.14922C0.349721 4.52897 1.08126 3.01633 2.26852 1.90573C3.45579 0.795142 5.01383 0.166071 6.63938 0.14097C10.5282 -0.0469901 14.4171 -0.0469901 18.3059 0.14097C22.1947 0.328931 24.8067 3.14186 25.0077 7.04366C25.1891 10.6538 25.1826 14.2899 25.0077 17.9065C24.8132 22.1388 21.9095 24.8221 17.6253 24.9712C15.9013 25.036 14.1772 24.9712 12.4402 24.9712L12.4662 24.9453ZM12.5569 22.9036C14.1902 22.9036 15.83 22.9036 17.4633 22.9036C20.7947 22.8259 22.8364 20.9592 22.966 17.6861C23.1021 14.2445 23.1086 10.7899 22.966 7.34828C22.8364 4.17888 20.8272 2.24094 17.6707 2.16317C14.2291 2.05946 10.7745 2.05946 7.33289 2.16317C4.34496 2.25391 2.34221 4.03629 2.21258 6.90755C2.03759 10.6927 2.03759 14.4908 2.21258 18.2694C2.34869 21.0953 4.28663 22.8064 7.13844 22.9036C8.93379 22.9684 10.7486 22.9036 12.5569 22.9036Z" fill="#131B31"/>
<path d="M12.6344 18.9112C10.9342 18.9253 9.29647 18.2708 8.07435 17.0887C6.85224 15.9066 6.14357 14.2916 6.10112 12.5918C6.08475 11.3274 6.44308 10.0865 7.13095 9.02543C7.81881 7.96438 8.80542 7.13075 9.96638 6.62961C11.1273 6.12847 12.4107 5.98227 13.6546 6.20944C14.8986 6.43661 16.0474 7.02698 16.9563 7.90612C17.8652 8.78526 18.4934 9.91381 18.7619 11.1495C19.0303 12.3852 18.9269 13.6727 18.4647 14.8497C18.0024 16.0267 17.2021 17.0405 16.1645 17.7633C15.1269 18.486 13.8986 18.8855 12.6344 18.9112ZM16.8602 12.4751C16.861 11.611 16.6036 10.7664 16.121 10.0496C15.6384 9.33283 14.9527 8.77657 14.1517 8.45222C13.3508 8.12788 12.4713 8.05023 11.6259 8.22924C10.7805 8.40826 10.0079 8.83577 9.40724 9.45693C8.80654 10.0781 8.40513 10.8646 8.25451 11.7154C8.10389 12.5663 8.21094 13.4428 8.56192 14.2324C8.9129 15.022 9.4918 15.6888 10.2243 16.1471C10.9569 16.6054 11.8097 16.8344 12.6733 16.8047C13.7999 16.7775 14.8706 16.3082 15.6541 15.498C16.4375 14.6879 16.8708 13.6021 16.8602 12.4751Z" fill="#131B31"/>
<path d="M70.6554 0.00176872C73.7801 0.00176872 76.9179 0.0604793 80.036 0.00176872C81.9931 0.00176872 82.8802 0.836764 82.8672 2.81988C82.828 9.25194 82.828 15.6818 82.8672 22.1096C82.8672 24.0666 82.1692 25.0125 80.1274 24.9994C73.6996 24.9516 67.2719 24.9516 60.8442 24.9994C58.848 25.0255 58 24.1709 58 22.1813C58.0391 15.7666 58.0391 9.34545 58 2.91773C58 0.791099 58.9328 -0.0438951 61.0138 0.00176872C64.2233 0.0735261 67.4394 0.00176872 70.6554 0.00176872ZM79.2271 20.7984C79.1097 18.052 79.2271 15.3644 78.8096 12.7615C78.3334 9.79991 75.6132 8.61917 72.8473 9.81948C72.403 10.0356 71.9123 10.1387 71.4186 10.1196C70.2314 9.98909 69.0637 9.73468 67.8242 9.5194V20.7462H71.4512C71.4512 18.6587 71.2555 16.7343 71.5295 14.8751C71.5561 14.6928 71.6134 14.5163 71.6991 14.3532C71.8536 14.0566 72.0855 13.8073 72.3703 13.6318C72.655 13.4564 72.9819 13.3612 73.3163 13.3566C73.6508 13.3519 73.9802 13.4378 74.2698 13.6052C74.5593 13.7727 74.7981 14.0154 74.9608 14.3076C75.0376 14.4403 75.0885 14.5864 75.1109 14.7381C75.274 16.7541 75.3024 18.7786 75.1957 20.7984H79.2271ZM65.4758 20.7984V9.8521H61.914V20.8179L65.4758 20.7984ZM63.6362 3.3287C62.6773 4.63338 61.5422 5.54666 61.6792 6.09462C61.8707 6.55898 62.169 6.97167 62.5498 7.29922C62.9306 7.62677 63.3833 7.85996 63.8711 7.97988C64.3668 8.07121 65.5671 6.77958 65.6193 6.02286C65.6715 5.26615 64.6147 4.60076 63.6362 3.3287Z" fill="#131B31"/>
<path d="M133.4 24.9741V15.608L136.432 15.2142C136.609 14.0984 136.78 13.0023 136.99 11.683L133.597 11.3155C132.993 7.69899 133.019 7.66617 136.944 7.0689V4.29253C131.739 2.71073 130.125 4.73229 129.422 11.5124C128.556 11.6502 127.256 11.5124 126.173 11.6633V15.1158L129.061 15.608V24.9413C125.248 24.9413 121.513 25.0332 117.798 24.8494C117.142 24.8494 116.112 23.5761 116.098 22.8804C116 16.0084 116.039 9.10358 116 2.19877C116 0.597279 116.755 0 118.225 0C125.045 0 131.857 0 138.67 0C140.187 0 140.902 0.656351 140.902 2.20534C140.876 9.01826 140.876 15.8334 140.902 22.6507C140.902 24.2784 140.278 25.0792 138.565 24.9938C136.852 24.9085 135.277 24.9741 133.4 24.9741Z" fill="#131B31"/>
</svg>
